<svg xmlns="http://www.w3.org/2000/svg" xmlns:xlink="http://www.w3.org/1999/xlink" viewBox="0 0 220 61.5"><defs><style>.cls-1{fill:#1f321d;}.cls-2{fill:url(#Dégradé_sans_nom_2);}.cls-3{fill:url(#Dégradé_sans_nom_2-2);}</style><linearGradient id="Dégradé_sans_nom_2" x1="-250.59" y1="288.07" x2="-249.59" y2="288.07" gradientTransform="matrix(65.87, 25.99, 30.72, -55.74, 7650.72, 22581.72)" gradientUnits="userSpaceOnUse"><stop offset="0" stop-color="#00eee1"/><stop offset="1" stop-color="#ffd233"/></linearGradient><linearGradient id="Dégradé_sans_nom_2-2" x1="-247.27" y1="287.02" x2="-246.27" y2="287.02" gradientTransform="matrix(34.89, 11.42, 16.27, -24.5, 3963.61, 9881.47)" xlink:href="#Dégradé_sans_nom_2"/></defs><title>Fichier 2</title><g id="Calque_2" data-name="Calque 2"><g id="Calque_1-2" data-name="Calque 1"><g id="cdbcec05-35f5-4da1-ad68-53b5b389587c"><path class="cls-1" d="M85.68,27.92,93.92,7.34h2.77l8.21,20.58h-4l-1.59-4.48h-8l-1.6,4.48Zm6.9-7.65h5.48l-2.73-7.5ZM113,28.2h0a6.92,6.92,0,0,1-3.88-1.05h0a6.6,6.6,0,0,1-2.38-2.77h0a8.79,8.79,0,0,1-.79-3.73h0a8.92,8.92,0,0,1,.79-3.73h0a6.78,6.78,0,0,1,2.38-2.79h0a6.69,6.69,0,0,1,3.86-1.08h0a6.85,6.85,0,0,1,3.84,1.08h0a6.53,6.53,0,0,1,2.45,3.22h0l-3.39,1.3h0a3.28,3.28,0,0,0-1.07-1.73h0a2.74,2.74,0,0,0-1.83-.66h0a3,3,0,0,0-1.94.62h0a3.58,3.58,0,0,0-1.13,1.62h0a6.87,6.87,0,0,0-.34,2.15h0a6.68,6.68,0,0,0,.34,2.15h0A3.35,3.35,0,0,0,111,24.38h0a3.09,3.09,0,0,0,2,.6h0a2.78,2.78,0,0,0,1.83-.64h0a3,3,0,0,0,1.07-1.68h0l3.24,1.23h0a6.38,6.38,0,0,1-2.35,3.18h0A6.43,6.43,0,0,1,113,28.2Zm8.87-.28V13.37h3.45v2.42h0a3.82,3.82,0,0,1,1.55-2h0a4.06,4.06,0,0,1,2.35-.74h0a4,4,0,0,1,1.45.27h0a3.18,3.18,0,0,1,1.23.79h0L130.23,17h0a2.82,2.82,0,0,0-1.6-.49h0a2.76,2.76,0,0,0-1.64.55h0a4,4,0,0,0-1.27,1.75h0a7.81,7.81,0,0,0-.47,2.94h0v6.16Zm17.94.28h0a7.43,7.43,0,0,1-3.88-1h0a7,7,0,0,1-2.64-2.77h0a7.85,7.85,0,0,1-.94-3.81h0a7.72,7.72,0,0,1,.94-3.77h0a7,7,0,0,1,2.64-2.75h0a7.42,7.42,0,0,1,3.88-1h0a7.47,7.47,0,0,1,3.9,1h0a7.19,7.19,0,0,1,2.64,2.75h0a7.93,7.93,0,0,1,.91,3.77h0a8.06,8.06,0,0,1-.91,3.81h0a7.1,7.1,0,0,1-2.64,2.77h0a7.47,7.47,0,0,1-3.9,1Zm0-3.05h0a3.51,3.51,0,0,0,2.13-.62h0a3.44,3.44,0,0,0,1.23-1.66h0a6.13,6.13,0,0,0,.41-2.28h0a5.19,5.19,0,0,0-.94-3.2h0a3.25,3.25,0,0,0-2.83-1.25h0a3.49,3.49,0,0,0-2.11.59h0a3.51,3.51,0,0,0-1.26,1.6h0a6.27,6.27,0,0,0-.38,2.26h0a6.34,6.34,0,0,0,.38,2.28h0a3.62,3.62,0,0,0,1.26,1.66h0a3.43,3.43,0,0,0,2.11.62Zm10.35,2.77V13.37h3.52v1.68h0a5,5,0,0,1,2-1.49h0a5.69,5.69,0,0,1,2.32-.51h0a4.85,4.85,0,0,1,3,.87h0a4.91,4.91,0,0,1,1.75,2.24h0a8.27,8.27,0,0,1,.53,3h0v8.76H159.7V19.63h0a3.66,3.66,0,0,0-.75-2.39h0a2.44,2.44,0,0,0-2-.91h0a3.19,3.19,0,0,0-2.41.89h0a3.73,3.73,0,0,0-.87,2.73h0v8Zm17.73,6.24,2.66-6.65-5.69-14.14h3.9l3.69,10.1,3.73-10.1H180l-8.31,20.79Zm14.21-6.24V13.37h3.58v1.51h0a4.25,4.25,0,0,1,1.64-1.39h0a5,5,0,0,1,2.07-.44h0a4.48,4.48,0,0,1,4.09,2.57h0a5.15,5.15,0,0,1,2.09-1.93h0a5.9,5.9,0,0,1,2.73-.64h0a5,5,0,0,1,3,.87h0A5.17,5.17,0,0,1,203,16.16h0a7.89,7.89,0,0,1,.57,3h0v8.76H200V19.63h0a4.55,4.55,0,0,0-.53-2.39h0a1.94,1.94,0,0,0-1.81-.89h0a2.76,2.76,0,0,0-1.64.49h0a2.93,2.93,0,0,0-1,1.28h0a4.19,4.19,0,0,0-.37,1.79h0v8H191V19.57h0a4.58,4.58,0,0,0-.51-2.35h0a1.9,1.9,0,0,0-1.79-.87h0a2.76,2.76,0,0,0-1.64.49h0A3.14,3.14,0,0,0,186,18.12h0a4.34,4.34,0,0,0-.36,1.79h0v8Zm31.45.28h0a7.66,7.66,0,0,1-4.07-1h0a6.53,6.53,0,0,1-2.49-2.75h0a8.58,8.58,0,0,1-.81-3.75h0a8.94,8.94,0,0,1,.79-3.72h0a6.53,6.53,0,0,1,2.38-2.82h0a7,7,0,0,1,4-1.08h0a6.5,6.5,0,0,1,3.9,1.1h0a6.35,6.35,0,0,1,2.17,2.77h0A9.36,9.36,0,0,1,220,20.4h0c0,.28,0,.56,0,.83h0a2.32,2.32,0,0,1-.11.55h-10a3.36,3.36,0,0,0,3.64,3.2h0a4.84,4.84,0,0,0,1.9-.36h0a4.83,4.83,0,0,0,1.6-1.18h0l2.45,2.13h0a8,8,0,0,1-2.67,2h0a8.3,8.3,0,0,1-3.3.64Zm-3.62-9h6.63a3.78,3.78,0,0,0-1-2.37h0a3.12,3.12,0,0,0-2.26-.83h0c-1.83,0-2.94,1.06-3.34,3.2Z"/></g><g id="dcb5ff82-f045-43ec-9db8-0e747860999b"><path class="cls-2" d="M0,0V61.5H72.68V0ZM67.09,55.91H5.59V11.18h61.5V55.91Z"/><path class="cls-3" d="M30.53,38.26H49.78v5.65H30.53Zm-19.25,0,19.24-7.64v0h0V24.54h0v0L11.28,16.88V23l11.6,4.61-11.6,4.61Z"/></g><path class="cls-1" d="M86.42,53.65H92.3v.68H85.68v-9.8h.74Zm20.64-3.21h0a3.91,3.91,0,0,1,0,.49h-5.9a3.22,3.22,0,0,0,.81,2.13h0a2.61,2.61,0,0,0,2,.76h0a3,3,0,0,0,1.51-.35h0a2.15,2.15,0,0,0,.91-1h0l.63.31h0a3,3,0,0,1-1.19,1.27h0a3.76,3.76,0,0,1-1.86.43h0a3.29,3.29,0,0,1-2.58-1h0a4,4,0,0,1-.93-2.83h0a4.13,4.13,0,0,1,.9-2.83h0a3.16,3.16,0,0,1,2.52-1h0a3,3,0,0,1,2.37,1h0a3.94,3.94,0,0,1,.87,2.67Zm-3.24-3h0a2.49,2.49,0,0,0-1.9.74h0a3.28,3.28,0,0,0-.79,2.1h5.23a3.36,3.36,0,0,0-.73-2.09h0a2.31,2.31,0,0,0-1.81-.75Zm16.46,5.83.26.61h0a2.17,2.17,0,0,1-.73.46h0a2.58,2.58,0,0,1-.94.16h0a1.89,1.89,0,0,1-1.42-.5h0a2,2,0,0,1-.51-1.5h0V47.55h-1.49v-.64h1.49V45.05l.74-.21v2.07h2.79v.64h-2.79v4.82h0a1.51,1.51,0,0,0,.33,1.06h0a1.23,1.23,0,0,0,1,.37h0a1.77,1.77,0,0,0,1.3-.55Zm9.78-9.09-.2,3.05h-.6V44.16ZM141.9,54.48h0a4.13,4.13,0,0,1-2-.44h0a2.3,2.3,0,0,1-1.14-1.3h0l.6-.4h0a1.8,1.8,0,0,0,.91,1.11h0a3.45,3.45,0,0,0,1.68.37h0a2.78,2.78,0,0,0,1.58-.38h0a1.18,1.18,0,0,0,.57-1h0a1,1,0,0,0-.49-.87h0a4.91,4.91,0,0,0-1.72-.55h0a5.62,5.62,0,0,1-2.2-.75h0a1.61,1.61,0,0,1-.64-1.36h0a1.85,1.85,0,0,1,.35-1.07h0a2.29,2.29,0,0,1,1-.76h0a3.67,3.67,0,0,1,1.49-.29h0a3.43,3.43,0,0,1,1.87.45h0a2.28,2.28,0,0,1,1,1.36h0l-.64.38h0a2,2,0,0,0-2.2-1.53h0a2.85,2.85,0,0,0-1.08.19h0a2,2,0,0,0-.76.51h0a1,1,0,0,0-.27.69h0a1.06,1.06,0,0,0,.5.95h0a4.68,4.68,0,0,0,1.78.56h0a5,5,0,0,1,2.14.74h0a1.55,1.55,0,0,1,.63,1.33h0a1.78,1.78,0,0,1-.81,1.52h0a3.76,3.76,0,0,1-2.19.57ZM170,53.25l.27.61h0a2.17,2.17,0,0,1-.73.46h0a2.63,2.63,0,0,1-.95.16h0a1.91,1.91,0,0,1-1.42-.5h0a2,2,0,0,1-.51-1.5h0V47.55H165.2v-.64h1.48V45.05l.74-.21v2.07h2.79v.64h-2.79v4.82h0a1.51,1.51,0,0,0,.33,1.06h0a1.25,1.25,0,0,0,1,.37h0a1.76,1.76,0,0,0,1.29-.55Zm12.31-6.49h0a1.6,1.6,0,0,1,.93.25h0l-.19.7h0a1.49,1.49,0,0,0-.95-.27h0a1.82,1.82,0,0,0-1.06.35h0a2.42,2.42,0,0,0-.8,1h0a3,3,0,0,0-.31,1.4h0v4.15h-.74V46.91h.62l.09,1.52h0a2.66,2.66,0,0,1,.93-1.23h0a2.49,2.49,0,0,1,1.48-.44Zm15.87.15-3.58,8.79h0a3.61,3.61,0,0,1-.91,1.41h0a2,2,0,0,1-1.29.42h0A1.79,1.79,0,0,1,191,57h0l.29-.63h0a1.25,1.25,0,0,0,1.12.53h0a1.4,1.4,0,0,0,.89-.29h0a2.48,2.48,0,0,0,.67-1.06h0l.48-1.19-.77-1.84-2.36-5.58h.84l2.28,5.63.37,1,.39-1.06,2.19-5.56Zm21.51-2.38v4.75l-.08,2.23H219L219,49.28V44.53Zm-.38,8.58h0a.7.7,0,0,1,.49.19h0a.65.65,0,0,1,.18.48h0a.69.69,0,0,1-.18.49h0a.69.69,0,0,1-.49.18h0a.65.65,0,0,1-.48-.18h0a.7.7,0,0,1-.19-.49h0a.66.66,0,0,1,.19-.48h0a.66.66,0,0,1,.48-.19Z"/></g></g></svg>